<svg xmlns="http://www.w3.org/2000/svg" viewBox="0 0 738 685">
<g fill="#EBE300">
<path d="M 261 415 L 256 421 L 264 428 L 269 422 Z"/>
<path d="M 286 392 L 273 403 L 281 411 L 293 399 Z"/>
<path d="M 355 372 L 347 380 L 359 391 L 367 381 Z"/>
<path d="M 308 368 L 296 380 L 303 387 L 316 376 Z"/>
<path d="M 381 353 L 370 363 L 377 371 L 388 361 Z"/>
<path d="M 329 347 L 320 357 L 327 364 L 334 365 L 341 358 Z"/>
<path d="M 402 332 L 391 342 L 398 350 L 409 340 Z"/>
<path d="M 416 316 L 412 322 L 420 329 L 425 323 Z"/>
<path d="M 427 303 L 422 313 L 424 315 L 433 315 L 435 311 L 432 305 Z"/>
<path d="M 428 293 L 446 307 L 447 301 L 442 293 L 438 291 Z"/>
<path d="M 428 265 L 424 270 L 425 281 L 430 285 L 446 288 L 452 295 L 456 309 L 460 312 L 471 311 L 476 304 L 474 294 L 468 290 L 454 287 L 450 283 L 442 265 L 437 263 Z"/>
<path d="M 459 256 L 462 265 L 454 272 L 453 277 L 456 282 L 464 283 L 469 275 L 473 273 L 481 275 L 480 272 L 475 270 L 468 272 L 464 268 L 464 258 Z"/>
</g></svg>