<svg xmlns="http://www.w3.org/2000/svg" width="3820" height="3396" viewBox="0 0 955 849">
<g fill="#E6E000">
<path d="M 567 548 L 560 553 L 559 564 L 563 570 L 573 572 L 578 579 L 576 590 L 580 591 L 583 580 L 578 570 L 582 563 L 595 562 L 601 557 L 602 553 L 599 552 L 592 558 L 584 558 L 578 550 Z"/>
<path d="M 536 517 L 528 536 L 517 548 L 528 549 L 539 541 L 542 529 Z"/>
<path d="M 497 508 L 491 519 L 491 525 L 494 528 L 506 528 L 509 525 L 506 511 L 503 508 Z"/>
<path d="M 576 504 L 560 502 L 551 509 L 548 517 L 549 538 L 547 543 L 538 552 L 522 559 L 515 568 L 514 576 L 516 582 L 523 589 L 536 592 L 547 585 L 550 579 L 551 556 L 554 549 L 577 534 L 583 526 L 583 513 Z"/>
<path d="M 472 493 L 467 503 L 475 507 L 479 496 Z"/>
<path d="M 453 470 L 443 476 L 454 490 L 461 482 Z"/>
<path d="M 377 469 L 362 470 L 362 482 L 378 480 Z"/>
<path d="M 331 468 L 329 479 L 345 481 L 346 470 Z"/>
<path d="M 595 465 L 581 466 L 581 477 L 596 477 Z"/>
<path d="M 553 463 L 551 474 L 566 476 L 567 465 Z"/>
<path d="M 406 462 L 392 466 L 394 477 L 410 472 Z"/>
<path d="M 623 460 L 610 463 L 611 474 L 626 471 Z"/>
<path d="M 303 457 L 298 467 L 313 474 L 317 463 Z"/>
<path d="M 526 454 L 522 464 L 536 469 L 539 459 Z"/>
<path d="M 648 450 L 636 455 L 640 466 L 653 459 Z"/>
<path d="M 440 441 L 429 445 L 431 449 L 420 456 L 425 465 L 446 456 Z"/>
<path d="M 502 440 L 496 449 L 508 457 L 514 447 Z"/>
<path d="M 281 438 L 273 445 L 285 456 L 291 447 Z"/>
<path d="M 668 433 L 659 441 L 665 450 L 676 441 Z"/>
<path d="M 456 428 L 445 439 L 453 447 L 464 435 Z"/>
<path d="M 480 421 L 473 428 L 484 439 L 491 430 Z"/>
<path d="M 270 415 L 260 418 L 265 432 L 275 427 Z"/>
<path d="M 682 410 L 676 423 L 686 428 L 693 414 Z"/>
<path d="M 429 410 L 418 414 L 423 429 L 434 426 Z"/>
<path d="M 456 402 L 462 414 L 473 422 L 482 410 L 474 404 L 471 406 L 466 398 Z"/>
<path d="M 256 389 L 256 403 L 267 402 L 267 389 Z"/>
<path d="M 686 381 L 686 396 L 697 397 L 697 380 Z"/>
<path d="M 418 380 L 408 384 L 413 398 L 424 394 Z"/>
<path d="M 488 377 L 481 390 L 490 396 L 498 382 Z"/>
<path d="M 454 372 L 443 375 L 448 389 L 459 385 Z"/>
<path d="M 261 360 L 257 374 L 268 376 L 272 363 Z"/>
<path d="M 406 353 L 396 358 L 402 371 L 412 366 Z"/>
<path d="M 507 351 L 497 363 L 506 370 L 515 358 Z"/>
<path d="M 449 351 L 438 353 L 439 360 L 450 358 Z"/>
<path d="M 685 347 L 676 353 L 683 367 L 693 363 Z"/>
<path d="M 278 332 L 268 346 L 278 352 L 286 340 Z"/>
<path d="M 529 328 L 517 338 L 524 346 L 536 337 Z"/>
<path d="M 387 328 L 380 336 L 389 346 L 397 338 Z"/>
<path d="M 431 331 L 431 336 L 435 339 L 447 339 L 451 336 L 451 331 L 444 325 L 438 325 Z"/>
<path d="M 661 324 L 656 334 L 667 342 L 674 333 Z"/>
<path d="M 558 313 L 543 319 L 548 329 L 561 324 Z"/>
<path d="M 633 311 L 630 322 L 643 326 L 648 316 Z"/>
<path d="M 361 311 L 358 322 L 370 327 L 375 318 Z"/>
<path d="M 310 310 L 292 319 L 299 328 L 313 321 Z"/>
<path d="M 588 307 L 573 309 L 575 320 L 588 318 Z"/>
<path d="M 603 306 L 603 317 L 617 318 L 617 307 Z"/>
<path d="M 329 306 L 329 317 L 344 318 L 346 307 Z"/>
<path d="M 440 305 L 453 308 L 471 319 L 472 317 L 470 307 L 463 302 L 447 301 Z"/>
<path d="M 425 279 L 425 286 L 429 292 L 441 296 L 465 296 L 472 300 L 481 314 L 489 320 L 504 320 L 514 311 L 515 305 L 509 297 L 501 294 L 473 292 L 451 270 L 439 269 L 432 271 Z"/>
<path d="M 471 282 L 479 288 L 486 288 L 494 283 L 497 275 L 503 273 L 512 275 L 514 272 L 500 270 L 492 273 L 485 269 L 485 261 L 480 256 L 475 256 L 481 264 L 481 269 L 473 273 Z"/>
</g></svg>